<mxfile host="app.diagrams.net" modified="2021-03-30T09:49:42.786Z" agent="5.0 (Windows NT 10.0; Win64; x64) AppleWebKit/537.36 (KHTML, like Gecko) Chrome/89.0.4389.90 Safari/537.36 Edg/89.0.774.63" etag="ETs0JVY94KsyXUptHuxk" version="14.5.3" type="github">
  <diagram id="cke8J8LmoHPJe_5reTwk" name="Page-1">
    <mxGraphModel dx="1303" dy="785" grid="1" gridSize="10" guides="1" tooltips="1" connect="1" arrows="1" fold="1" page="1" pageScale="1" pageWidth="827" pageHeight="1169" math="0" shadow="0">
      <root>
        <mxCell id="0" />
        <mxCell id="1" parent="0" />
        <mxCell id="5xZlSV727FWII021sCfa-16" style="edgeStyle=orthogonalEdgeStyle;rounded=0;orthogonalLoop=1;jettySize=auto;html=1;entryX=0.5;entryY=0;entryDx=0;entryDy=0;" edge="1" parent="1" source="5xZlSV727FWII021sCfa-4" target="5xZlSV727FWII021sCfa-5">
          <mxGeometry relative="1" as="geometry" />
        </mxCell>
        <mxCell id="5xZlSV727FWII021sCfa-17" style="edgeStyle=orthogonalEdgeStyle;rounded=0;orthogonalLoop=1;jettySize=auto;html=1;entryX=1;entryY=0.5;entryDx=0;entryDy=0;" edge="1" parent="1" source="5xZlSV727FWII021sCfa-4" target="5xZlSV727FWII021sCfa-6">
          <mxGeometry relative="1" as="geometry">
            <mxPoint x="130" y="400" as="targetPoint" />
            <Array as="points">
              <mxPoint x="140" y="50" />
              <mxPoint x="140" y="320" />
            </Array>
          </mxGeometry>
        </mxCell>
        <mxCell id="5xZlSV727FWII021sCfa-18" style="edgeStyle=orthogonalEdgeStyle;rounded=0;orthogonalLoop=1;jettySize=auto;html=1;entryX=1;entryY=0.5;entryDx=0;entryDy=0;" edge="1" parent="1" source="5xZlSV727FWII021sCfa-4" target="5xZlSV727FWII021sCfa-8">
          <mxGeometry relative="1" as="geometry" />
        </mxCell>
        <mxCell id="5xZlSV727FWII021sCfa-19" style="edgeStyle=orthogonalEdgeStyle;rounded=0;orthogonalLoop=1;jettySize=auto;html=1;entryX=1;entryY=0.5;entryDx=0;entryDy=0;" edge="1" parent="1" source="5xZlSV727FWII021sCfa-4" target="5xZlSV727FWII021sCfa-9">
          <mxGeometry relative="1" as="geometry" />
        </mxCell>
        <mxCell id="5xZlSV727FWII021sCfa-20" style="edgeStyle=orthogonalEdgeStyle;rounded=0;orthogonalLoop=1;jettySize=auto;html=1;entryX=0.5;entryY=0;entryDx=0;entryDy=0;" edge="1" parent="1" source="5xZlSV727FWII021sCfa-4" target="5xZlSV727FWII021sCfa-10">
          <mxGeometry relative="1" as="geometry" />
        </mxCell>
        <mxCell id="5xZlSV727FWII021sCfa-21" style="edgeStyle=orthogonalEdgeStyle;rounded=0;orthogonalLoop=1;jettySize=auto;html=1;entryX=1;entryY=0.5;entryDx=0;entryDy=0;" edge="1" parent="1" source="5xZlSV727FWII021sCfa-4" target="5xZlSV727FWII021sCfa-11">
          <mxGeometry relative="1" as="geometry">
            <mxPoint x="430" y="410" as="targetPoint" />
            <Array as="points">
              <mxPoint x="430" y="320" />
            </Array>
          </mxGeometry>
        </mxCell>
        <mxCell id="5xZlSV727FWII021sCfa-22" style="edgeStyle=orthogonalEdgeStyle;rounded=0;orthogonalLoop=1;jettySize=auto;html=1;entryX=0.5;entryY=0;entryDx=0;entryDy=0;" edge="1" parent="1" source="5xZlSV727FWII021sCfa-4" target="5xZlSV727FWII021sCfa-12">
          <mxGeometry relative="1" as="geometry" />
        </mxCell>
        <mxCell id="5xZlSV727FWII021sCfa-23" style="edgeStyle=orthogonalEdgeStyle;rounded=0;orthogonalLoop=1;jettySize=auto;html=1;entryX=0.5;entryY=0;entryDx=0;entryDy=0;" edge="1" parent="1" source="5xZlSV727FWII021sCfa-4" target="5xZlSV727FWII021sCfa-14">
          <mxGeometry relative="1" as="geometry" />
        </mxCell>
        <mxCell id="5xZlSV727FWII021sCfa-24" style="edgeStyle=orthogonalEdgeStyle;rounded=0;orthogonalLoop=1;jettySize=auto;html=1;entryX=0;entryY=0.5;entryDx=0;entryDy=0;" edge="1" parent="1" source="5xZlSV727FWII021sCfa-4" target="5xZlSV727FWII021sCfa-13">
          <mxGeometry relative="1" as="geometry">
            <Array as="points">
              <mxPoint x="470" y="50" />
              <mxPoint x="470" y="320" />
            </Array>
          </mxGeometry>
        </mxCell>
        <mxCell id="5xZlSV727FWII021sCfa-25" style="edgeStyle=orthogonalEdgeStyle;rounded=0;orthogonalLoop=1;jettySize=auto;html=1;entryX=0;entryY=0.5;entryDx=0;entryDy=0;" edge="1" parent="1" source="5xZlSV727FWII021sCfa-4" target="5xZlSV727FWII021sCfa-15">
          <mxGeometry relative="1" as="geometry">
            <Array as="points">
              <mxPoint x="610" y="50" />
              <mxPoint x="610" y="320" />
            </Array>
          </mxGeometry>
        </mxCell>
        <mxCell id="5xZlSV727FWII021sCfa-4" value="메인 페이지" style="rounded=0;whiteSpace=wrap;html=1;" vertex="1" parent="1">
          <mxGeometry x="340" y="20" width="120" height="60" as="geometry" />
        </mxCell>
        <mxCell id="5xZlSV727FWII021sCfa-28" style="edgeStyle=orthogonalEdgeStyle;rounded=0;orthogonalLoop=1;jettySize=auto;html=1;entryX=0.5;entryY=0;entryDx=0;entryDy=0;" edge="1" parent="1" source="5xZlSV727FWII021sCfa-5" target="5xZlSV727FWII021sCfa-26">
          <mxGeometry relative="1" as="geometry" />
        </mxCell>
        <mxCell id="5xZlSV727FWII021sCfa-5" value="전체제품 클릭" style="rounded=0;whiteSpace=wrap;html=1;" vertex="1" parent="1">
          <mxGeometry x="10" y="160" width="79" height="40" as="geometry" />
        </mxCell>
        <mxCell id="5xZlSV727FWII021sCfa-38" value="" style="edgeStyle=orthogonalEdgeStyle;rounded=0;orthogonalLoop=1;jettySize=auto;html=1;" edge="1" parent="1" source="5xZlSV727FWII021sCfa-6" target="5xZlSV727FWII021sCfa-37">
          <mxGeometry relative="1" as="geometry" />
        </mxCell>
        <mxCell id="5xZlSV727FWII021sCfa-6" value="전체제품 On 마우스" style="rounded=0;whiteSpace=wrap;html=1;" vertex="1" parent="1">
          <mxGeometry x="10" y="300" width="79" height="40" as="geometry" />
        </mxCell>
        <mxCell id="5xZlSV727FWII021sCfa-33" style="edgeStyle=orthogonalEdgeStyle;rounded=0;orthogonalLoop=1;jettySize=auto;html=1;entryX=0.5;entryY=0;entryDx=0;entryDy=0;" edge="1" parent="1" source="5xZlSV727FWII021sCfa-8" target="5xZlSV727FWII021sCfa-29">
          <mxGeometry relative="1" as="geometry" />
        </mxCell>
        <mxCell id="5xZlSV727FWII021sCfa-8" value="유산균관 클릭" style="rounded=0;whiteSpace=wrap;html=1;" vertex="1" parent="1">
          <mxGeometry x="170" y="160" width="79" height="40" as="geometry" />
        </mxCell>
        <mxCell id="5xZlSV727FWII021sCfa-39" style="edgeStyle=orthogonalEdgeStyle;rounded=0;orthogonalLoop=1;jettySize=auto;html=1;" edge="1" parent="1" source="5xZlSV727FWII021sCfa-9">
          <mxGeometry relative="1" as="geometry">
            <mxPoint x="209.5" y="360" as="targetPoint" />
          </mxGeometry>
        </mxCell>
        <mxCell id="5xZlSV727FWII021sCfa-9" value="유산균관 On 마우스" style="rounded=0;whiteSpace=wrap;html=1;" vertex="1" parent="1">
          <mxGeometry x="170" y="300" width="79" height="40" as="geometry" />
        </mxCell>
        <mxCell id="5xZlSV727FWII021sCfa-34" value="" style="edgeStyle=orthogonalEdgeStyle;rounded=0;orthogonalLoop=1;jettySize=auto;html=1;" edge="1" parent="1" source="5xZlSV727FWII021sCfa-10" target="5xZlSV727FWII021sCfa-30">
          <mxGeometry relative="1" as="geometry" />
        </mxCell>
        <mxCell id="5xZlSV727FWII021sCfa-10" value="기능별 클릭" style="rounded=0;whiteSpace=wrap;html=1;" vertex="1" parent="1">
          <mxGeometry x="330" y="160" width="79" height="40" as="geometry" />
        </mxCell>
        <mxCell id="5xZlSV727FWII021sCfa-42" value="" style="edgeStyle=orthogonalEdgeStyle;rounded=0;orthogonalLoop=1;jettySize=auto;html=1;" edge="1" parent="1" source="5xZlSV727FWII021sCfa-11" target="5xZlSV727FWII021sCfa-41">
          <mxGeometry relative="1" as="geometry" />
        </mxCell>
        <mxCell id="5xZlSV727FWII021sCfa-11" value="기능별 On 마우스" style="rounded=0;whiteSpace=wrap;html=1;" vertex="1" parent="1">
          <mxGeometry x="330" y="300" width="79" height="40" as="geometry" />
        </mxCell>
        <mxCell id="5xZlSV727FWII021sCfa-35" value="" style="edgeStyle=orthogonalEdgeStyle;rounded=0;orthogonalLoop=1;jettySize=auto;html=1;" edge="1" parent="1" source="5xZlSV727FWII021sCfa-12" target="5xZlSV727FWII021sCfa-31">
          <mxGeometry relative="1" as="geometry" />
        </mxCell>
        <mxCell id="5xZlSV727FWII021sCfa-12" value="성분별 클릭" style="rounded=0;whiteSpace=wrap;html=1;" vertex="1" parent="1">
          <mxGeometry x="490" y="160" width="79" height="40" as="geometry" />
        </mxCell>
        <mxCell id="5xZlSV727FWII021sCfa-46" value="" style="edgeStyle=orthogonalEdgeStyle;rounded=0;orthogonalLoop=1;jettySize=auto;html=1;" edge="1" parent="1" source="5xZlSV727FWII021sCfa-13" target="5xZlSV727FWII021sCfa-44">
          <mxGeometry relative="1" as="geometry" />
        </mxCell>
        <mxCell id="5xZlSV727FWII021sCfa-13" value="성분별 On 마우스" style="rounded=0;whiteSpace=wrap;html=1;" vertex="1" parent="1">
          <mxGeometry x="490" y="300" width="79" height="40" as="geometry" />
        </mxCell>
        <mxCell id="5xZlSV727FWII021sCfa-36" value="" style="edgeStyle=orthogonalEdgeStyle;rounded=0;orthogonalLoop=1;jettySize=auto;html=1;" edge="1" parent="1" source="5xZlSV727FWII021sCfa-14" target="5xZlSV727FWII021sCfa-32">
          <mxGeometry relative="1" as="geometry" />
        </mxCell>
        <mxCell id="5xZlSV727FWII021sCfa-14" value="커뮤니티 클릭" style="rounded=0;whiteSpace=wrap;html=1;" vertex="1" parent="1">
          <mxGeometry x="650" y="160" width="79" height="40" as="geometry" />
        </mxCell>
        <mxCell id="5xZlSV727FWII021sCfa-47" value="" style="edgeStyle=orthogonalEdgeStyle;rounded=0;orthogonalLoop=1;jettySize=auto;html=1;" edge="1" parent="1" source="5xZlSV727FWII021sCfa-15" target="5xZlSV727FWII021sCfa-45">
          <mxGeometry relative="1" as="geometry" />
        </mxCell>
        <mxCell id="5xZlSV727FWII021sCfa-15" value="커뮤니티 On 마우스" style="rounded=0;whiteSpace=wrap;html=1;" vertex="1" parent="1">
          <mxGeometry x="650" y="300" width="79" height="40" as="geometry" />
        </mxCell>
        <mxCell id="5xZlSV727FWII021sCfa-26" value="해당 페이지로 이동" style="rounded=0;whiteSpace=wrap;html=1;" vertex="1" parent="1">
          <mxGeometry x="10" y="220" width="79" height="40" as="geometry" />
        </mxCell>
        <mxCell id="5xZlSV727FWII021sCfa-29" value="해당 페이지로 이동" style="rounded=0;whiteSpace=wrap;html=1;" vertex="1" parent="1">
          <mxGeometry x="170" y="220" width="79" height="40" as="geometry" />
        </mxCell>
        <mxCell id="5xZlSV727FWII021sCfa-30" value="해당 페이지로 이동" style="rounded=0;whiteSpace=wrap;html=1;" vertex="1" parent="1">
          <mxGeometry x="330" y="220" width="79" height="40" as="geometry" />
        </mxCell>
        <mxCell id="5xZlSV727FWII021sCfa-31" value="해당 페이지로 이동" style="rounded=0;whiteSpace=wrap;html=1;" vertex="1" parent="1">
          <mxGeometry x="490" y="220" width="79" height="40" as="geometry" />
        </mxCell>
        <mxCell id="5xZlSV727FWII021sCfa-32" value="해당 페이지로 이동" style="rounded=0;whiteSpace=wrap;html=1;" vertex="1" parent="1">
          <mxGeometry x="650" y="220" width="79" height="40" as="geometry" />
        </mxCell>
        <mxCell id="5xZlSV727FWII021sCfa-37" value="모든 분류 모두 이벤트 출력" style="rounded=0;whiteSpace=wrap;html=1;" vertex="1" parent="1">
          <mxGeometry x="10" y="360" width="79" height="50" as="geometry" />
        </mxCell>
        <mxCell id="5xZlSV727FWII021sCfa-41" value="해당 분류 이벤트 출력" style="rounded=0;whiteSpace=wrap;html=1;" vertex="1" parent="1">
          <mxGeometry x="330" y="360" width="79" height="40" as="geometry" />
        </mxCell>
        <mxCell id="5xZlSV727FWII021sCfa-43" value="해당 분류 이벤트 출력" style="rounded=0;whiteSpace=wrap;html=1;" vertex="1" parent="1">
          <mxGeometry x="170" y="360" width="79" height="40" as="geometry" />
        </mxCell>
        <mxCell id="5xZlSV727FWII021sCfa-44" value="해당 분류 이벤트 출력" style="rounded=0;whiteSpace=wrap;html=1;" vertex="1" parent="1">
          <mxGeometry x="490" y="360" width="79" height="40" as="geometry" />
        </mxCell>
        <mxCell id="5xZlSV727FWII021sCfa-45" value="해당 분류 이벤트 출력" style="rounded=0;whiteSpace=wrap;html=1;" vertex="1" parent="1">
          <mxGeometry x="650" y="360" width="79" height="40" as="geometry" />
        </mxCell>
      </root>
    </mxGraphModel>
  </diagram>
</mxfile>
